<svg
    width="24"
    height="24"
    viewBox="0 0 24 24"
    fill="none"
    xmlns="http://www.w3.org/2000/svg">
<path
    d="M1.63687 20.9998H5.45297V11.7313L0 7.63672V19.363C0 20.2705 0.734531 20.9998 1.63687 20.9998Z"
    fill="#4285F4"></path>
<path
    d="M18.5469 20.9998H22.363C23.2653 20.9998 23.9998 20.2653 23.9998 19.363V7.63672L18.5469 11.7261V20.9998Z"
    fill="#34A853"></path>
<path
    d="M18.5469 4.63477V11.7241L23.9998 7.63477V5.45087C23.9998 3.43008 21.6912 2.27321 20.0736 3.48774L18.5469 4.63477Z"
    fill="#FBBC04"></path>
<path
    d="M5.45312 11.7313V4.63672L12.0002 9.54734L18.5472 4.63672V11.7313L12.0002 16.6367L5.45312 11.7313Z"
    fill="#EA4335"></path>
<path
    d="M0 5.45868V7.64258L5.45297 11.732V4.6379L3.92625 3.49555C2.30859 2.28102 0 3.4379 0 5.45868Z"
    fill="#C5221F"></path>
</svg>
      
     