 <svg
        width="25"
        height="25"
        viewBox="0 0 25 25"
        fill="none"
        xmlns="http://www.w3.org/2000/svg">
        <g filter="url(#filter0_i_13142_77908)">
          <g clip-path="url(#clip0_13142_77908)">
            <path
              d="M5.92857 0.5H19.0714C22.0714 0.5 24.5 2.92857 24.5 5.92857V19.0714C24.5 22.0714 22.0714 24.5 19.0714 24.5H5.92857C2.92857 24.5 0.5 22.0714 0.5 19.0714V5.92857C0.5 2.92857 2.92857 0.5 5.92857 0.5Z"
              fill="url(#paint0_linear_13142_77908)"></path>
            <path
              d="M20.132 6.67188H4.65252C4.51187 6.67188 4.3795 6.71324 4.26367 6.77943L4.42914 6.9449L11.3705 13.8945C11.9331 14.4571 12.8514 14.4571 13.414 13.8945L20.5291 6.7877C20.4133 6.71324 20.2726 6.67188 20.132 6.67188Z"
              fill="white"></path>
            <path
              d="M20.8699 7.40838C20.8699 7.26773 20.8285 7.13536 20.7623 7.01953L15.6328 12.1987L20.7788 17.3281C20.8368 17.2206 20.8699 17.0965 20.8699 16.9724V7.40838Z"
              fill="white"></path>
            <path
              d="M3.92578 7.40838C3.92578 7.26773 3.96715 7.13536 4.03334 7.01953L9.16282 12.1987L4.01679 17.3281C3.95888 17.2206 3.92578 17.0965 3.92578 16.9724V7.40838Z"
              fill="white"></path>
            <path
              d="M15.3583 12.4414L13.5629 14.2367C12.9176 14.8821 11.8586 14.8821 11.2133 14.2367L9.41798 12.4497L4.26367 17.5957C4.3795 17.6619 4.5036 17.7033 4.64425 17.7033H20.1237C20.2644 17.7033 20.3967 17.6619 20.5043 17.5957L20.1982 17.2896L15.3583 12.4414Z"
              fill="white"></path>
          </g>
        </g>
        <defs>
          <filter
            id="filter0_i_13142_77908"
            x="0.5"
            y="0.0555556"
            width="24"
            height="24.4444"
            filterUnits="userSpaceOnUse"
            color-interpolation-filters="sRGB">
            <feFlood flood-opacity="0" result="BackgroundImageFix"></feFlood>
            <feBlend
              mode="normal"
              in="SourceGraphic"
              in2="BackgroundImageFix"
              result="shape"></feBlend>
            <feColorMatrix
              in="SourceAlpha"
              type="matrix"
              values="0 0 0 0 0 0 0 0 0 0 0 0 0 0 0 0 0 0 127 0"
              result="hardAlpha"></feColorMatrix>
            <feOffset dy="-0.444444"></feOffset>
            <feGaussianBlur stdDeviation="0.222222"></feGaussianBlur>
            <feComposite
              in2="hardAlpha"
              operator="arithmetic"
              k2="-1"
              k3="1"></feComposite>
            <feColorMatrix
              type="matrix"
              values="0 0 0 0 0 0 0 0 0 0 0 0 0 0 0 0 0 0 0.03 0"></feColorMatrix>
            <feBlend
              mode="normal"
              in2="shape"
              result="effect1_innerShadow_13142_77908"></feBlend>
          </filter>
          <linearGradient
            id="paint0_linear_13142_77908"
            x1="12.5"
            y1="0.5"
            x2="12.5"
            y2="24.5"
            gradientUnits="userSpaceOnUse">
            <stop stop-color="#3486F4"></stop>
            <stop offset="1" stop-color="#2AD1FB"></stop>
          </linearGradient>
          <clipPath id="clip0_13142_77908">
            <rect
              x="0.5"
              y="0.5"
              width="24"
              height="24"
              rx="3.55556"
              fill="white"></rect>
          </clipPath>
        </defs>
      </svg>