<svg
        width="24"
        height="24"
        viewBox="0 0 24 24"
        fill="none"
        xmlns="http://www.w3.org/2000/svg">
        <path
          d="M20.8546 2.15625H8.76648C8.50467 2.15625 8.25357 2.26026 8.06844 2.44539C7.8833 2.63052 7.7793 2.88162 7.7793 3.14344V4.26562L14.5926 6.375L21.8418 4.26562V3.14344C21.8418 2.88162 21.7378 2.63052 21.5527 2.44539C21.3675 2.26026 21.1164 2.15625 20.8546 2.15625Z"
          fill="#0364B8"></path>
        <path
          d="M23.002 12.9875C23.1049 12.6638 23.1871 12.3338 23.248 11.9996C23.248 11.9175 23.2263 11.8369 23.1852 11.7658C23.1441 11.6947 23.085 11.6357 23.0139 11.5946L23.0048 11.589L23.002 11.5876L15.3815 7.24649C15.3486 7.22516 15.3146 7.20568 15.2795 7.18813C15.1338 7.11578 14.9733 7.07812 14.8105 7.07812C14.6478 7.07812 14.4873 7.11578 14.3416 7.18813C14.3065 7.20543 14.2725 7.22468 14.2396 7.24579L6.61914 11.5883L6.61633 11.5897L6.60789 11.5946C6.53665 11.6356 6.47745 11.6946 6.43622 11.7657C6.395 11.8368 6.37321 11.9174 6.37305 11.9996C6.43396 12.3338 6.51616 12.6638 6.61914 12.9875L14.6995 18.8973L23.002 12.9875Z"
          fill="#0A2767"></path>
        <path
          d="M17.6222 4.26562H12.7003L11.2793 6.375L12.7003 8.48438L17.6222 12.7031H21.8409V8.48438L17.6222 4.26562Z"
          fill="#28A8EA"></path>
        <path
          d="M7.7793 4.26562H12.7012V8.48438H7.7793V4.26562Z"
          fill="#0078D4"></path>
        <path
          d="M17.623 4.26562H21.8418V8.48438H17.623V4.26562Z"
          fill="#50D9FF"></path>
        <path
          d="M17.623 12.7031L12.7012 8.48438H7.7793V12.7031L12.7012 16.9219L20.3174 18.165L17.623 12.7031Z"
          fill="#0364B8"></path>
        <path
          d="M12.7012 8.48438H17.623V12.7031H12.7012V8.48438Z"
          fill="#0078D4"></path>
        <path
          d="M7.7793 12.7031H12.7012V16.9219H7.7793V12.7031Z"
          fill="#064A8C"></path>
        <path
          d="M17.623 12.7031H21.8418V16.9219H17.623V12.7031Z"
          fill="#0078D4"></path>
        <path
          opacity="0.5"
          d="M14.9423 18.4805L6.65039 12.4336L6.99844 11.8219C6.99844 11.8219 14.5535 16.125 14.6688 16.1897C14.716 16.2086 14.7666 16.2176 14.8174 16.2161C14.8682 16.2147 14.9181 16.2028 14.9641 16.1813L22.6514 11.8008L23.0002 12.4118L14.9423 18.4805Z"
          fill="#0A2767"></path>
        <path
          d="M23.0145 12.4057L23.0046 12.4113L23.0025 12.4127L15.382 16.7538C15.2307 16.8514 15.0568 16.9085 14.8771 16.9197C14.6974 16.931 14.5178 16.8959 14.3555 16.8178L17.0091 20.3763L22.8127 21.6398V21.6427C22.9477 21.545 23.0576 21.4167 23.1333 21.2683C23.2091 21.1199 23.2486 20.9557 23.2486 20.7891V12C23.2486 12.0822 23.227 12.163 23.1859 12.2342C23.1448 12.3054 23.0857 12.3646 23.0145 12.4057Z"
          fill="#1490DF"></path>
        <path
          opacity="0.05"
          d="M23.2486 20.7917V20.2728L16.2293 16.2734L15.382 16.7565C15.2307 16.8541 15.0568 16.9112 14.8771 16.9224C14.6974 16.9336 14.5178 16.8985 14.3555 16.8205L17.0091 20.379L22.8127 21.6425V21.6453C22.9477 21.5477 23.0576 21.4194 23.1333 21.271C23.2091 21.1226 23.2486 20.9583 23.2486 20.7917Z"
          fill="black"></path>
        <path
          opacity="0.1"
          d="M23.2134 21.0584L15.5191 16.6758L15.382 16.7531C15.2307 16.8508 15.0569 16.9081 14.8772 16.9194C14.6975 16.9307 14.5178 16.8958 14.3555 16.8178L17.0091 20.3763L22.8127 21.6398V21.6427C23.0095 21.5001 23.151 21.2939 23.2134 21.0591V21.0584Z"
          fill="black"></path>
        <path
          d="M6.61916 12.4148V12.4078H6.61213L6.59104 12.3937C6.52382 12.3525 6.46842 12.2946 6.43022 12.2256C6.39203 12.1566 6.37234 12.0789 6.37307 12V20.7891C6.37288 20.9276 6.40004 21.0648 6.45297 21.1929C6.50591 21.3209 6.58359 21.4373 6.68156 21.5353C6.77954 21.6332 6.89588 21.7109 7.02392 21.7638C7.15197 21.8168 7.2892 21.8439 7.42775 21.8438H22.1934C22.2812 21.8429 22.3686 21.8311 22.4535 21.8086C22.4976 21.8009 22.5402 21.7867 22.5801 21.7664C22.595 21.7649 22.6095 21.7601 22.6223 21.7523C22.6798 21.7288 22.7342 21.6981 22.784 21.6609C22.7981 21.6539 22.8051 21.6539 22.8121 21.6398L6.61916 12.4148Z"
          fill="#28A8EA"></path>
        <path
          opacity="0.1"
          d="M13.4043 18.094V6.60914C13.4036 6.36079 13.3046 6.12282 13.129 5.94721C12.9533 5.7716 12.7154 5.67262 12.467 5.67188H7.80039V10.9144L6.61914 11.588L6.61563 11.5894L6.60719 11.5943C6.53598 11.6354 6.47685 11.6946 6.43574 11.7658C6.39464 11.837 6.37302 11.9178 6.37305 12V19.0313H12.467C12.7154 19.0305 12.9533 18.9315 13.129 18.7559C13.3046 18.5803 13.4036 18.3423 13.4043 18.094Z"
          fill="black"></path>
        <path
          opacity="0.2"
          d="M12.7012 18.7971V7.31227C12.7004 7.06392 12.6014 6.82595 12.4258 6.65034C12.2502 6.47473 12.0123 6.37574 11.7639 6.375H7.80039V10.9144L6.61914 11.588L6.61563 11.5894L6.60719 11.5943C6.53598 11.6354 6.47685 11.6946 6.43574 11.7658C6.39464 11.837 6.37302 11.9178 6.37305 12V19.7344H11.7639C12.0123 19.7336 12.2502 19.6347 12.4258 19.459C12.6014 19.2834 12.7004 19.0455 12.7012 18.7971Z"
          fill="black"></path>
        <path
          opacity="0.2"
          d="M12.7012 17.3909V7.31227C12.7004 7.06392 12.6014 6.82595 12.4258 6.65034C12.2502 6.47473 12.0123 6.37574 11.7639 6.375H7.80039V10.9144L6.61914 11.588L6.61563 11.5894L6.60719 11.5943C6.53598 11.6354 6.47685 11.6946 6.43574 11.7658C6.39464 11.837 6.37302 11.9178 6.37305 12V18.3281H11.7639C12.0123 18.3274 12.2502 18.2284 12.4258 18.0528C12.6014 17.8772 12.7004 17.6392 12.7012 17.3909Z"
          fill="black"></path>
        <path
          opacity="0.2"
          d="M11.998 17.3909V7.31227C11.9973 7.06392 11.8983 6.82595 11.7227 6.65034C11.5471 6.47473 11.3091 6.37574 11.0608 6.375H7.80039V10.9144L6.61914 11.588L6.61563 11.5894L6.60719 11.5943C6.53598 11.6354 6.47685 11.6946 6.43574 11.7658C6.39464 11.837 6.37302 11.9178 6.37305 12V18.3281H11.0608C11.3091 18.3274 11.5471 18.2284 11.7227 18.0528C11.8983 17.8772 11.9973 17.6392 11.998 17.3909Z"
          fill="black"></path>
        <path
          d="M1.68531 6.375H11.0608C11.3094 6.375 11.5478 6.47375 11.7235 6.64952C11.8993 6.82529 11.998 7.06369 11.998 7.31227V16.6877C11.998 16.9363 11.8993 17.1747 11.7235 17.3505C11.5478 17.5263 11.3094 17.625 11.0608 17.625H1.68531C1.43673 17.625 1.19834 17.5263 1.02257 17.3505C0.846794 17.1747 0.748047 16.9363 0.748047 16.6877L0.748047 7.31227C0.748047 7.06369 0.846794 6.82529 1.02257 6.64952C1.19834 6.47375 1.43673 6.375 1.68531 6.375Z"
          fill="#0078D4"></path>
        <path
          d="M3.46658 10.2172C3.71562 9.68647 4.11769 9.24228 4.62111 8.94177C5.17884 8.62249 5.81388 8.46337 6.45626 8.48192C7.05107 8.46902 7.63799 8.61982 8.1529 8.91786C8.6376 9.20657 9.02796 9.62991 9.2765 10.1364C9.54725 10.6946 9.68217 11.309 9.67025 11.9293C9.68327 12.5773 9.54432 13.2193 9.26454 13.8039C9.0106 14.3284 8.60847 14.7669 8.1079 15.0653C7.57279 15.3728 6.96359 15.5277 6.34657 15.5132C5.73871 15.5276 5.13851 15.3752 4.61126 15.0723C4.12269 14.7831 3.72774 14.3594 3.47361 13.8517C3.201 13.3017 3.06428 12.6943 3.07494 12.0805C3.06314 11.4378 3.19704 10.8008 3.46658 10.2172ZM4.69704 13.2111C4.82972 13.5467 5.05473 13.8378 5.34603 14.0507C5.64286 14.2584 5.99844 14.3656 6.36064 14.3565C6.74648 14.3715 7.12675 14.2607 7.44415 14.0408C7.7322 13.828 7.95149 13.5354 8.07486 13.1992C8.21318 12.8246 8.28135 12.4278 8.27595 12.0285C8.28024 11.6254 8.21604 11.2246 8.08611 10.843C7.97145 10.4998 7.75999 10.197 7.4772 9.97114C7.16817 9.74018 6.78901 9.62273 6.40353 9.63857C6.03345 9.62921 5.6699 9.73726 5.36501 9.94724C5.068 10.1605 4.83779 10.4539 4.70126 10.7931C4.39924 11.5707 4.39749 12.433 4.69634 13.2118L4.69704 13.2111Z"
          fill="white"></path>
      </svg>