<svg xmlns="http://www.w3.org/2000/svg" viewBox="0 0 611.94 400.98"><defs><style>.cls-1{fill:#ebebeb;}.cls-2{fill:#dbdbdb;}.cls-3{fill:#1b65af;}.cls-4{fill:#4b8c68;}.cls-5{fill:#fff;}.cls-6{fill:#513409;}.cls-7{fill:#c7c7c7;}.cls-8{fill:#263238;}.cls-9{fill:#eb9481;}.cls-10{fill:#a6a6a6;}.cls-11{fill:#37474f;}.cls-12{fill:#ffc727;}.cls-13,.cls-16,.cls-17{fill:none;}.cls-13{stroke:#f5a79e;stroke-linecap:round;stroke-linejoin:round;stroke-width:0;}.cls-14{fill:#ff99ba;}.cls-15{opacity:0.1;}.cls-16,.cls-17{stroke:#263238;stroke-miterlimit:10;}.cls-17{stroke-dasharray:4 4;}.cls-18{fill:#455a64;}</style></defs><g id="Layer_2" data-name="Layer 2"><g id="Background_Complete" data-name="Background Complete"><polygon class="cls-1" points="601.33 94.54 591.76 140.88 585.6 134.88 575.12 142.35 567.11 132.41 549.15 145.47 533.8 119.8 516.68 129.83 509.89 120.46 488.15 132.71 481.61 118.71 496.85 44.9 578.55 61.77 601.33 94.54"/><polygon class="cls-2" points="578.55 61.77 601.33 94.54 572.99 88.69 578.55 61.77"/><polygon class="cls-1" points="589.72 150.15 575.69 218.14 465.64 195.43 479.57 127.97 486.11 141.98 507.86 129.73 514.64 139.09 531.77 129.06 547.11 154.73 565.08 141.67 573.08 151.61 583.57 144.14 589.72 150.15"/><polygon class="cls-1" points="432.21 142.18 320.06 149.12 311.15 5.15 394.43 0 425 25.64 432.21 142.18"/><polygon class="cls-2" points="394.43 0 425 25.64 396.12 27.43 394.43 0"/><path class="cls-3" d="M363.34,96.86l-.44-3.24c-1.13-6.73.71-14.26,6.56-22.14,5.27-7,8.14-12,7.82-17.67-.36-6.4-4.61-10.44-12.52-10.12a22.31,22.31,0,0,0-12.45,4.6l-3.45-7.74c4-3.24,11-5.65,17.65-6,14.43-.81,21.45,7.73,22,17.26.48,8.53-3.94,14.95-9.56,22.43-5.16,6.83-6.85,12.47-6.12,18.84l.31,3.26Zm-1.78,17.72c-.26-4.64,2.69-8.08,7.08-8.33s7.59,2.85,7.85,7.49c.24,4.39-2.45,7.94-7.09,8.2C365,122.19,361.81,119,361.56,114.58Z"/><path class="cls-3" d="M82.86,72.38,71.57,67.26,70,70.72a3,3,0,0,1-2.57,1.71c-.62,0-1.23.09-1.85.18a2.93,2.93,0,0,1-2.85-1.18l-2.21-3.08L50.46,75.57l2.21,3.08a3,3,0,0,1,.2,3.08,17.16,17.16,0,0,0-.77,1.69,2.94,2.94,0,0,1-2.45,1.88l-3.77.37L47.09,98l3.79-.38A3,3,0,0,1,53.65,99c.16.26.33.51.51.76s.36.49.55.72a2.94,2.94,0,0,1,.42,3.05L53.55,107l11.29,5.12,1.57-3.46A2.92,2.92,0,0,1,69,107q.92,0,1.83-.18A3,3,0,0,1,73.67,108l2.21,3.08L86,103.83l-2.21-3.08a2.93,2.93,0,0,1-.2-3.08A16.85,16.85,0,0,0,84.3,96a3,3,0,0,1,2.45-1.89l3.79-.37L89.32,81.4l-3.79.37a2.93,2.93,0,0,1-2.75-1.38c-.17-.25-.34-.51-.52-.76s-.36-.49-.55-.73a3,3,0,0,1-.42-3.06Zm-6.4,11.41A10.15,10.15,0,1,1,62.3,81.44,10.15,10.15,0,0,1,76.46,83.79Z"/><path class="cls-3" d="M592.76,236l-7.52,4.34,1.33,2.3a2,2,0,0,1-.07,2.16,12.7,12.7,0,0,0-.65,1.13,2.06,2.06,0,0,1-1.83,1.14h-2.66v8.68H584a2,2,0,0,1,1.83,1.15,12.53,12.53,0,0,0,.65,1.12,2,2,0,0,1,.07,2.16l-1.33,2.31,7.52,4.33,1.34-2.31a2.05,2.05,0,0,1,1.91-1l.64,0,.64,0a2.05,2.05,0,0,1,1.91,1l1.33,2.31,7.52-4.33-1.33-2.31a2.07,2.07,0,0,1,.08-2.17c.23-.36.45-.73.65-1.12a2.06,2.06,0,0,1,1.83-1.14h2.66v-8.68h-2.66a2.06,2.06,0,0,1-1.83-1.14c-.2-.39-.42-.76-.65-1.12a2.05,2.05,0,0,1-.08-2.16l1.33-2.31L600.53,236l-1.33,2.31a2.09,2.09,0,0,1-1.91,1c-.21,0-.42,0-.64,0s-.43,0-.64,0a2.09,2.09,0,0,1-1.92-1Zm3.89,8.3a7.11,7.11,0,1,1-7.12,7.11A7.11,7.11,0,0,1,596.65,244.28Z"/><path class="cls-3" d="M105.68,35.43,98.79,40.7l1.61,2.11a2.06,2.06,0,0,1,.21,2.16,10.47,10.47,0,0,0-.5,1.2,2.07,2.07,0,0,1-1.67,1.37l-2.64.34,1.12,8.61,2.64-.34a2,2,0,0,1,2,.89,11.67,11.67,0,0,0,.79,1,2.07,2.07,0,0,1,.36,2.14l-1,2.45,8,3.34,1-2.47a2.07,2.07,0,0,1,1.77-1.25l.64-.06.63-.1a2.06,2.06,0,0,1,2,.75L117.37,65l6.89-5.27-1.61-2.12a2,2,0,0,1-.21-2.15,10.47,10.47,0,0,0,.5-1.2,2.06,2.06,0,0,1,1.67-1.36l2.64-.35-1.12-8.61-2.64.34a2,2,0,0,1-2-.89,11.52,11.52,0,0,0-.79-1,2.07,2.07,0,0,1-.36-2.14l1-2.46-8-3.33-1,2.46a2.06,2.06,0,0,1-1.77,1.24l-.64.07-.63.1a2.05,2.05,0,0,1-2-.76Zm4.93,7.73a7.11,7.11,0,1,1-6.14,8A7.1,7.1,0,0,1,110.61,43.16Z"/><path class="cls-1" d="M54.2,261.05a275.83,275.83,0,0,0-.4-29,370.67,370.67,0,0,0-9.09-59.15c-2.54-11-5.66-21.71-8.92-32.46-.1-.32-.62-.23-.53.11C45.33,178.4,53.59,217.51,53,256.9c-.16,11-1.44,21.86-2.48,32.81,0,.3.45.41.52.11C53.13,280.45,53.81,270.62,54.2,261.05Z"/><path class="cls-4" d="M35.26,140.51S20,179.21,23.43,188.3s10.45,11,10.45,11-9.33,13.32-2.81,25.81,21,11.9,22,26.06C53,251.21,53.84,192,35.26,140.51Z"/><path class="cls-5" d="M51.38,226.76a.31.31,0,0,0,0-.21,354.22,354.22,0,0,0-14.78-77.84c0-.08-.15-.05-.13,0q4.53,17,8,34.15a16.87,16.87,0,0,0-7.28-4.06s-.08.06,0,.08a19.35,19.35,0,0,1,7.52,5c.44,2.24.88,4.49,1.29,6.73-3.41-3.81-8.13-5.69-12.86-7.49-.07,0-.1.08,0,.1,4.93,2,9.83,4.59,13.17,8.83q1.74,9.65,3.06,19.34a18.28,18.28,0,0,0-9.09-5.21c-.11,0-.17.13-.06.16a19.22,19.22,0,0,1,9.22,5.9l.06.05q.45,3.4.86,6.83a23.66,23.66,0,0,0-6.37-3.85.05.05,0,0,0,0,.1,21.85,21.85,0,0,1,6.39,4.22s.05,0,.08,0c.25,2.16.5,4.33.72,6.5a30.89,30.89,0,0,0-12.93-9.23c-.1,0-.15.11-.05.16a33.66,33.66,0,0,1,12.74,9.8.27.27,0,0,0,.32.1c.33,3.33.63,6.67.87,10,0,.05.08.05.08,0C51.9,233.59,51.66,230.18,51.38,226.76Z"/><path class="cls-5" d="M39.13,175A19.07,19.07,0,0,0,30,172.12c-.08,0-.08.1,0,.12A36.13,36.13,0,0,1,39,175.19C39.15,175.25,39.24,175.05,39.13,175Z"/><path class="cls-5" d="M41,216a19.27,19.27,0,0,0-6.88-2.36c-.08,0-.09.12,0,.13a25.72,25.72,0,0,1,6.8,2.39C41,216.16,41.07,216,41,216Z"/><path class="cls-1" d="M94.28,188.93a103.76,103.76,0,0,0-17.65,15.43,63.19,63.19,0,0,0-12.37,21A156.87,156.87,0,0,0,55,275.54a122.22,122.22,0,0,0,2.71,28.23.27.27,0,0,0,.53-.1,158.54,158.54,0,0,1,.28-49.34c2.62-16,6.73-33.43,16.91-46.44,5.54-7.08,12.45-12.66,19.28-18.42C95.11,189.17,94.65,188.67,94.28,188.93Z"/><path class="cls-4" d="M57.28,264a95.3,95.3,0,0,1,12.86-16.45c7.63-7.62,14-13,15-18.08s-7.64-8.76-7.64-8.76S88.1,222.62,91,218.19s4.28-30.08,4.28-30.08S76.07,201.82,67.12,221,57.28,264,57.28,264Z"/><path class="cls-5" d="M88.63,194.69c-8.08,7.93-16.21,16.39-21,26.81a103,103,0,0,0-4.24,11.06s0,0,0,0c-.24.75-.49,1.51-.72,2.27a.22.22,0,0,0,0,.13,218.1,218.1,0,0,0-5.46,23.7c0,.05.07.08.08,0,.83-4,1.74-8,2.76-12.08a.25.25,0,0,0,.12,0,16.56,16.56,0,0,1,5-1.28c.12,0,.11-.21,0-.2a18.78,18.78,0,0,0-5,.91c.93-3.64,1.94-7.26,3.08-10.83a53.24,53.24,0,0,1,11.39-1.49,0,0,0,1,0,0-.06,43,43,0,0,0-11.2,1c.2-.62.41-1.23.61-1.84a57.4,57.4,0,0,1,7.58-1.28s0-.08,0-.08a37,37,0,0,0-7.42.9c1-3.09,2.17-6.14,3.42-9.11a55.68,55.68,0,0,1,3.63-7,47.11,47.11,0,0,1,6.15-1.09s0-.1,0-.1a16.43,16.43,0,0,0-5.75.56c1-1.63,2.07-3.23,3.21-4.77h0c4.31-1,8.67-1.84,13.08-1,.07,0,.1-.11,0-.13-4.19-1.1-8.35-.46-12.52.36.45-.6.92-1.2,1.39-1.8a28.42,28.42,0,0,1,8-1.26c.06,0,.07-.09,0-.09a20.86,20.86,0,0,0-7.5.67c3.56-4.43,7.49-8.58,11.38-12.69C89,194.61,88.82,194.5,88.63,194.69Z"/><path class="cls-5" d="M88.41,212.17a18.07,18.07,0,0,0-3.82-.13.14.14,0,0,0,0,.27c1.26,0,2.53-.05,3.79,0A.08.08,0,1,0,88.41,212.17Z"/><path class="cls-5" d="M74.59,237.06a17.44,17.44,0,0,0-5.92,1.19s0,.1,0,.08c2-.46,3.93-.65,5.91-1A.15.15,0,0,0,74.59,237.06Z"/><path class="cls-5" d="M70.45,228.46a13.17,13.17,0,0,0-2.51.23.08.08,0,0,0,0,.15,11.71,11.71,0,0,0,2.51-.12A.13.13,0,0,0,70.45,228.46Z"/><path class="cls-1" d="M1,216.16a87.64,87.64,0,0,1,17.85,8.4,53.51,53.51,0,0,1,14.87,14.13,132.08,132.08,0,0,1,19.06,38.49,102.44,102.44,0,0,1,4.32,23.47.23.23,0,0,1-.45.05A133,133,0,0,0,45,260.83c-5.83-12.35-13.18-25.5-24.42-33.68-6.12-4.45-13-7.36-19.86-10.44A.3.3,0,0,1,1,216.16Z"/><path class="cls-4" d="M48.29,268.37A79.71,79.71,0,0,0,34.08,258c-7.94-4.41-14.39-7.31-16.36-11.16S21.88,238,21.88,238s-8.1,4-11.46,1.06S0,215.72,0,215.72s18.71,6.66,30.39,20.14S48.29,268.37,48.29,268.37Z"/><path class="cls-5" d="M47.31,264.15C38,246.59,25.47,230.7,8.36,220.22c0,0,0,0,0,0A86.26,86.26,0,0,1,20.88,230a19.78,19.78,0,0,0-10.06,2.12.06.06,0,0,0,0,.11,27.5,27.5,0,0,1,10.35-1.75.26.26,0,0,0,.12,0c.61.58,1.2,1.16,1.8,1.75a32.51,32.51,0,0,0-5.38.72c-.05,0,0,.08,0,.07a27.72,27.72,0,0,1,5.67-.47,116.91,116.91,0,0,1,8.83,10,9,9,0,0,0-3.76.28.07.07,0,1,0,0,.14,19.92,19.92,0,0,1,4-.06c.51.65,1,1.3,1.53,2A36.17,36.17,0,0,0,22.74,246a0,0,0,1,0,0,.08,45.64,45.64,0,0,1,11.66-.75c.48.63.93,1.28,1.4,1.92a24.94,24.94,0,0,0-6.76.77c-.08,0-.06.16,0,.14a25.69,25.69,0,0,1,7-.55q3,4.17,5.79,8.48a6.36,6.36,0,0,0-3,.18s0,.09,0,.08a12.77,12.77,0,0,1,3.21.15q2.5,3.9,4.82,7.85C47.08,264.55,47.44,264.39,47.31,264.15Z"/><path class="cls-5" d="M32.76,249.59a14.54,14.54,0,0,0-5.44.66,0,0,0,0,0,0,.08,42.56,42.56,0,0,1,5.41-.55C32.86,249.77,32.89,249.6,32.76,249.59Z"/><path class="cls-5" d="M16.44,228.18a9.61,9.61,0,0,0-2.51.15c-.09,0-.06.16,0,.15.83-.09,1.64-.06,2.46-.08A.11.11,0,0,0,16.44,228.18Z"/><polygon class="cls-6" points="72.42 326.45 30.19 326.45 36.21 282.34 37.75 271.03 64.86 271.03 66.4 282.34 72.42 326.45"/><polygon class="cls-7" points="66.4 282.34 36.21 282.34 37.75 271.03 64.86 271.03 66.4 282.34"/><rect class="cls-2" x="33.87" y="267.11" width="34.86" height="9.58"/></g><g id="Floor"><polygon class="cls-8" points="3.34 326.45 79.35 326.2 155.36 326.12 307.38 325.95 459.4 326.11 535.41 326.2 611.42 326.45 535.41 326.69 459.4 326.78 307.38 326.94 155.36 326.78 79.35 326.69 3.34 326.45"/></g><g id="Shadow"><ellipse class="cls-3" cx="309.38" cy="369.56" rx="286.74" ry="31.42"/></g><g id="Character"><path class="cls-9" d="M242.63,364.35c-2.33.79-69.14,1-71.7-.57-1-.61-1.57-10.33-2-22.11-.09-2.54-.16-5.17-.22-7.84l-5.42-35.63,44.67-.29,4.21,35.64-.17,7.84s25.62,11.36,28.24,13.41S245,363.56,242.63,364.35Z"/><path class="cls-5" d="M242.63,364.35c-2.33.79-69.14,1-71.7-.57-1.18-.74-1.82-14.95-2.18-29.95l43.46-.28-.17,7.84s25.62,11.36,28.24,13.41S245,363.56,242.63,364.35Z"/><path class="cls-10" d="M242.63,364.35c-2.33.79-69.14,1-71.7-.57-1-.61-1.57-10.33-2-22.11l43.07-.28s25.62,11.36,28.24,13.41S245,363.56,242.63,364.35Z"/><path class="cls-8" d="M241.66,361.68c-11.2-.23-56.4-.12-67.49.49-.09,0-.09.07,0,.07,11.1.48,56.3,0,67.49-.37C241.9,361.86,241.9,361.69,241.66,361.68Z"/><path class="cls-8" d="M236,352.41a9,9,0,0,0-6.69,2.76,8.7,8.7,0,0,0-2.48,6c0,.07.12.07.13,0a10.41,10.41,0,0,1,9-8.61A.07.07,0,0,0,236,352.41Z"/><path class="cls-8" d="M216.39,342.49c-4.48,0-9.67,1.56-12.45,5.23-.1.14.1.3.23.23a61.67,61.67,0,0,1,12.3-4.91A.28.28,0,0,0,216.39,342.49Z"/><path class="cls-8" d="M219.86,343.83c-4.49-.05-9.68,1.55-12.45,5.23-.11.14.09.29.23.22a62.16,62.16,0,0,1,12.29-4.9A.28.28,0,0,0,219.86,343.83Z"/><path class="cls-8" d="M223.32,345.17c-4.48-.05-9.67,1.55-12.45,5.23-.1.14.1.29.23.22a62.24,62.24,0,0,1,12.3-4.9A.28.28,0,0,0,223.32,345.17Z"/><path class="cls-8" d="M226.79,346.5c-4.49,0-9.68,1.56-12.45,5.23-.11.15.1.3.23.23a61.43,61.43,0,0,1,12.3-4.91A.28.28,0,0,0,226.79,346.5Z"/><path class="cls-8" d="M177,351.53c-5,0-5,7.84,0,7.81S182,351.49,177,351.53Z"/><path class="cls-8" d="M221.19,330.51c-2.27-1.87-5.13,0-6.52,1.94a23.58,23.58,0,0,0-4,11.47.12.12,0,0,0,.14.13.55.55,0,0,0,.81.36c3.18-2.22,6.86-4.2,9.27-7.33C222.26,335.26,223.34,332.29,221.19,330.51Zm-5.46,9.55c-1.54,1.13-3.13,2.18-4.63,3.36.8-2.23,1.49-4.49,2.51-6.65a25.18,25.18,0,0,1,1.62-3c1-1.48,5.36-5.25,5.82-.37C221.31,336.06,217.56,338.71,215.73,340.06Z"/><path class="cls-8" d="M199.51,345.63c3.9.58,7.93-.54,11.76-1.15a.55.55,0,0,0,.33-.82.12.12,0,0,0,0-.19A23.62,23.62,0,0,0,200.75,338c-2.36-.44-5.7.2-6,3.13C194.39,343.89,197.23,345.28,199.51,345.63Zm-2.72-2.55c-3-3.83,2.73-4.16,4.45-3.76a25.53,25.53,0,0,1,3.28,1.05c2.22.85,4.29,2,6.41,3.06-1.9.18-3.77.53-5.66.78C203,344.51,198.47,345.2,196.79,343.08Z"/><path class="cls-11" d="M97.7,133.47S149.57,221.71,151,227.9c2.13,9.52,13.44,103.54,13.44,103.54l54-1s-9.3-82.89-18.11-110.2c-6.34-19.67-52.12-84.91-52.12-84.91Z"/><path class="cls-8" d="M213.47,322.19c-7.75-.05-35.22-.36-45.54.6-.08,0-.07.14,0,.15,3.55.51,37.78-.29,45.53-.53A.11.11,0,0,0,213.47,322.19Z"/><path class="cls-8" d="M106.55,141.57c3.4,5.33,7,10.55,10.46,15.83S124,168,127.37,173.31q10.26,16,20,32.21a97.79,97.79,0,0,1,8.09,15.73A96.52,96.52,0,0,1,160,238.19c1.06,5.79,1.76,11.64,2.41,17.48q1,9.34,2.09,18.68,2.13,19.11,4.27,38.22c.17,1.56.34,3.12.5,4.69,0,.22-.39.27-.42,0-1.59-12.66-2.91-25.35-4.35-38q-1.08-9.47-2.15-18.93c-.67-5.87-1.31-11.74-2.22-17.58a115.16,115.16,0,0,0-3.8-17,81.4,81.4,0,0,0-7.46-16.51c-6.25-10.79-12.87-21.39-19.49-32S116,156,109,145.51c-.86-1.29-1.73-2.58-2.63-3.85C106.31,141.56,106.49,141.46,106.55,141.57Z"/><path class="cls-9" d="M114.7,369.56c-2.46-.15-66-25.9-67.77-28.33a1,1,0,0,1-.09-.47c0-2.19,4.41-9.84,8.09-19.87.23-.64,1.87-3.62,4.14-7.64,6.26-11,17.33-29.92,17.33-29.92l41.53,16.5L98.05,329.59,95,336.79s19.49,20.14,21.13,23S117.15,369.7,114.7,369.56Z"/><path class="cls-5" d="M114.7,369.56c-2.46-.15-66-25.9-67.77-28.33a1,1,0,0,1-.09-.47c0-2.19,4.41-9.84,8.09-19.87.23-.64,1.87-3.62,4.14-7.64l39,16.34L95,336.79s19.49,20.14,21.13,23S117.15,369.7,114.7,369.56Z"/><path class="cls-10" d="M114.7,369.55c-2.46-.14-66-25.89-67.76-28.33-.68-.92,2.16-9.6,8-20.33l40,15.9s19.49,20.14,21.14,23S117.15,369.7,114.7,369.55Z"/><path class="cls-8" d="M114.8,366.72c-10.29-4.42-52.23-21.28-62.74-24.87-.09,0-.11,0,0,.07,10.11,4.6,52.18,21.12,62.7,25C115,367,115,366.81,114.8,366.72Z"/><path class="cls-8" d="M113,356a9,9,0,0,0-7.24,0,8.77,8.77,0,0,0-4.54,4.62c0,.07.09.11.12.05A10.4,10.4,0,0,1,113,356.12C113,356.14,113.08,356,113,356Z"/><path class="cls-8" d="M98.57,339.44c-4.13-1.72-9.55-2.18-13.5.18-.15.09,0,.31.13.3a61,61,0,0,1,13.24.07A.29.29,0,0,0,98.57,339.44Z"/><path class="cls-8" d="M101.28,342c-4.13-1.72-9.55-2.19-13.5.18-.15.09,0,.31.13.3a61.69,61.69,0,0,1,13.24.06A.28.28,0,0,0,101.28,342Z"/><path class="cls-8" d="M104,344.52c-4.14-1.72-9.56-2.19-13.51.18-.15.09,0,.31.13.3a61.69,61.69,0,0,1,13.24.06A.28.28,0,0,0,104,344.52Z"/><path class="cls-8" d="M106.71,347.06c-4.14-1.72-9.55-2.19-13.5.18-.16.09,0,.31.12.29a62.34,62.34,0,0,1,13.24.07A.28.28,0,0,0,106.71,347.06Z"/><path class="cls-8" d="M58.66,333c-4.67-1.86-7.57,5.4-2.88,7.26S63.34,334.9,58.66,333Z"/><path class="cls-8" d="M107.52,330.14c-1.41-2.59-4.74-1.95-6.77-.65a23.49,23.49,0,0,0-8,9.12.13.13,0,0,0,.08.18c0,.33.22.72.61.63,3.79-.86,7.94-1.31,11.34-3.31C106.73,334.94,108.85,332.59,107.52,330.14Zm-8.65,6.8c-1.85.47-3.71.85-5.54,1.38a69.79,69.79,0,0,1,4.81-5.22,26.31,26.31,0,0,1,2.64-2.2c1.46-1,6.94-2.86,5.54,1.84C105.55,335.33,101.08,336.38,98.87,336.94Z"/><path class="cls-8" d="M81.75,336c3.4,2,7.55,2.47,11.33,3.34.39.09.65-.3.62-.63a.12.12,0,0,0,.08-.17,23.45,23.45,0,0,0-8-9.15c-2-1.3-5.35-2-6.77.63S79.76,334.84,81.75,336Zm-1.56-3.38c-1.39-4.7,4.08-2.84,5.53-1.82a24.24,24.24,0,0,1,2.64,2.2c1.75,1.63,3.23,3.47,4.8,5.25-1.83-.55-3.69-.93-5.54-1.4C85.42,336.3,81,335.23,80.19,332.64Z"/><path class="cls-11" d="M101.26,327.92,54.77,309.15s57.64-84.74,58.06-91c.38-5.59-24.94-54.21-25.93-68.38-1.08-15.29,6.28-27.13,14.38-34.47l47.95,20.38s-5.06,8.1-13,12.61c0,0,24.59,56.2,23.19,73.48S101.26,327.92,101.26,327.92Z"/><path class="cls-8" d="M103.32,319.08c-6.72-2.89-4.75-2.15-11.51-5-3.3-1.38-25-10.41-28.34-11.15-.07,0-.12.1,0,.14,2.89,1.77,24.77,10.42,28.1,11.73,6.81,2.69,4.88,1.84,11.72,4.45A.11.11,0,0,0,103.32,319.08Z"/><path class="cls-8" d="M144.09,147.21a90.46,90.46,0,0,0-14.6,4.73.16.16,0,0,0,.1.3c4.9-1.44,9.88-2.77,14.7-4.46A.3.3,0,0,0,144.09,147.21Z"/><path class="cls-8" d="M138.4,145.24a22.28,22.28,0,0,0-1.23,2.56,6,6,0,0,0-.63,2.16c0,.14.2.18.28.09a7.59,7.59,0,0,0,1.21-2c.41-.79.83-1.58,1.22-2.38C139.5,145.11,138.69,144.73,138.4,145.24Z"/><path class="cls-8" d="M139,140.73c.3-.74.59-1.48.9-2.21s.7-1.5,1-2.28c0-.12.24,0,.19.08-.3.74-.49,1.53-.72,2.29s-.49,1.52-.74,2.28c-.47,1.41-1,2.81-1.65,4.17a5.16,5.16,0,0,0,2.3-.4,4.1,4.1,0,0,0,1.63-1.95c.42-.82.81-1.67,1.24-2.49a16.11,16.11,0,0,0,1.33-2.78c0-.12.24,0,.19.08a32.24,32.24,0,0,1-2.55,5.92c-.45.73-.8,1.49-1.62,1.78a6.61,6.61,0,0,1-2.73.18c-.12,0-.26,0-.22-.17A47.4,47.4,0,0,1,139,140.73Z"/><path class="cls-8" d="M136.94,150.07c1.71,3.61,3.21,7.21,4.8,10.81s3,7.08,4.43,10.65c2.86,7.23,5.42,14.59,7.67,22,1.11,3.68,2.14,7.39,3.06,11.12a80.41,80.41,0,0,1,2.22,11.37,30,30,0,0,1-1,11.4,66.2,66.2,0,0,1-4.23,10.62c-1.05,2.17-1.4,1.87-.9.78,1.43-3.09,5.18-12.48,4.91-20.38a58.84,58.84,0,0,0-1.78-11.25q-1.31-5.67-2.95-11.25c-2.13-7.34-4.66-14.53-7.26-21.71-1.46-4-3-8-4.5-12s-3-7.69-4.68-12.1A.09.09,0,1,1,136.94,150.07Z"/><path class="cls-8" d="M101.65,138.13c.83-.31,2,.21,2.84.35a26,26,0,0,0,3.29.33,25.47,25.47,0,0,0,3.27-.11,7.09,7.09,0,0,0,3.13-.83,15.82,15.82,0,0,0,4-4.24,24.38,24.38,0,0,0,3.11-5.46c0-.11.21,0,.17.08-.35,1.12-.61,2.24-1,3.33a20.67,20.67,0,0,1-1.54,2.95,12.68,12.68,0,0,1-4.14,4.7c-1.93,1.1-4.41,1-6.56.91a25.65,25.65,0,0,1-3.71-.5c-.88-.18-2.36-.32-2.92-1.1A.27.27,0,0,1,101.65,138.13Z"/><path class="cls-8" d="M68,300.29q11.46-17.34,22.5-35t21.78-35.55c1.71-2.85,3.68-5.7,4.78-8.86,1.2-3.43.52-6.75-.56-10.11a171.63,171.63,0,0,0-7.14-18c-2.68-5.91-5.57-11.72-8.41-17.56S95.18,163.63,93,157.55c-2-5.81-2.81-11.83-1.25-17.86s4.92-11.34,8.43-16.35c.92-1.32,1.87-2.63,2.8-3.94.07-.11.22,0,.15.12-3.87,5.22-7.64,10.74-9.91,16.87a29.21,29.21,0,0,0-1.92,9.46,30.48,30.48,0,0,0,1.51,9.66c1.88,6.08,4.85,11.84,7.62,17.55s5.73,11.65,8.46,17.53a188.69,188.69,0,0,1,7.42,18.12c.93,2.76,2,5.63,1.92,8.58-.07,3.23-1.61,6.14-3.21,8.86-7,11.86-14.17,23.57-21.47,35.21s-14.81,23.28-22.41,34.79L68.3,300.5C68.18,300.68,67.92,300.47,68,300.29Z"/><path class="cls-9" d="M151.89,81.73c4.33,9.51,26.2,22.6,36.44,24,7.36,1,29.74,1.36,37.41.19,9-1.37,2.12-25.63-3.19-25-14.6,1.71-27,3.61-30.9,3.61-4.76,0-30.51-8.27-33.61-9.43C150.44,72.25,149.44,76.35,151.89,81.73Z"/><path class="cls-12" d="M152,84.25c5.48,8.11,23.69,21.36,23.69,21.36l2.53-5.6,8.37-18.51s-16.73-5.28-27.74-7.63a24.12,24.12,0,0,0-3.94-.56C147.91,72.93,147.3,77.27,152,84.25Z"/><path class="cls-8" d="M152,84.25c5.48,8.11,23.69,21.36,23.69,21.36l2.53-5.6c-6.79-7.88-17.28-19.83-23.31-26.7C147.91,72.93,147.3,77.27,152,84.25Z"/><path class="cls-8" d="M172.44,101.87c1.39-3.4,7.57-17.13,9.11-20,.1-.2.26-.19.17,0a201.71,201.71,0,0,1-9.14,20C172.54,102,172.4,102,172.44,101.87Z"/><path class="cls-9" d="M219.87,81.18C228.75,80,239.74,78,249.05,82a5,5,0,0,1,2.49,2.14c4.2,1.7,4.66,4.19,4.66,4.19,3.43,2.78,3.55,5.39,3.55,5.39s4.92,2,4.17,5.23c-.82,3.56-7.56,0-12.46.29-11.25.69-27,4.82-30.25,5.35Z"/><path class="cls-8" d="M239.16,91.66a72.4,72.4,0,0,1,9.88,0,71.88,71.88,0,0,1,10.6,2.15.09.09,0,0,0,.06-.17,38.29,38.29,0,0,0-20.54-2.08C239,91.54,239,91.66,239.16,91.66Z"/><path class="cls-8" d="M237.76,84.93c3.23,0,8.91.16,18.41,3.47,0,0,.06,0,0-.05a34.32,34.32,0,0,0-18.43-3.57C237.56,84.79,237.54,84.93,237.76,84.93Z"/><path class="cls-8" d="M237.07,81.31c5.49.28,8.92,1.15,14.44,2.81,0,0,.06,0,0-.05-6.08-2.55-8.57-2.78-14.47-2.95C236.85,81.11,236.86,81.29,237.07,81.31Z"/><path class="cls-9" d="M238,100.9c-1.43.67-1.08,1.43,1.65,2.06s14.08.82,13.68,4.77-16.41,3.46-20.88,2.06-11.2-5.23-11.2-5.23C224.34,104,231.82,102,238,100.9Z"/><path class="cls-8" d="M163.78,96.88c-.07,1.71-.23,3.45-.47,5.17l.07-.18c.33-.9.66-1.83,1.06-2.7,0,0,.1,0,.09,0a15.15,15.15,0,0,1-.86,2.78c-.18.42-.35.85-.54,1.27-.12.77-.26,1.53-.41,2.28-.3,1.43-1.65,7.52-2,8.54-.06.22-.32.17-.3-.07.07-1.12,1.2-7.46,1.43-8.89a77.89,77.89,0,0,1,1.79-8.26C163.69,96.79,163.79,96.82,163.78,96.88Z"/><path class="cls-12" d="M153.36,142.34c-2.67,1.38-6.11,3.51-21.61.46-1-.2-1.94-.44-2.92-.73-14.53-4.37-32-21.46-33-22.66,0,0,23.09-37.43,52.62-49.2,3.65-1.45,9.69,1.35,13,4.84,1.19,1.25,3.78,10.43,2.79,17.87S156,141,153.36,142.34Z"/><path class="cls-5" d="M151.3,92.58a11.35,11.35,0,0,1-.65,4.67,10.93,10.93,0,0,1,.65-4.67Z"/><path class="cls-5" d="M141.23,118.07a10.39,10.39,0,0,1-.08,2.37,9.93,9.93,0,0,1-.57,2.3,9.85,9.85,0,0,1,.08-2.37A10.32,10.32,0,0,1,141.23,118.07Z"/><path class="cls-5" d="M124.12,98.81a11.34,11.34,0,0,1-.65,4.66,9.77,9.77,0,0,1,.07-2.36A10.35,10.35,0,0,1,124.12,98.81Z"/><path class="cls-5" d="M157.89,116.78a10.41,10.41,0,0,1-.08,2.37,9.85,9.85,0,0,1-.57,2.29,9.77,9.77,0,0,1,.08-2.36A10.32,10.32,0,0,1,157.89,116.78Z"/><path class="cls-5" d="M135.92,95.5a11.34,11.34,0,0,1,4.66.65,11.27,11.27,0,0,1-4.66-.65Z"/><path class="cls-5" d="M116.5,113.92a11.34,11.34,0,0,1,4.66.65,11.27,11.27,0,0,1-4.66-.65Z"/><path class="cls-5" d="M139.34,133.85a10.39,10.39,0,0,1,2.37.08,9.85,9.85,0,0,1,2.29.57,9.79,9.79,0,0,1-2.36-.08A10.32,10.32,0,0,1,139.34,133.85Z"/><path class="cls-5" d="M110.51,126.61a10.31,10.31,0,0,1,2.36.08,9.8,9.8,0,0,1,2.3.57,11.34,11.34,0,0,1-4.66-.65Z"/><path class="cls-5" d="M151.15,74.67a10.31,10.31,0,0,1,2.36.07,9.83,9.83,0,0,1,2.3.58,11.34,11.34,0,0,1-4.66-.65Z"/><path class="cls-5" d="M145.5,81.05a10.86,10.86,0,0,1-3.75,2.83,10.53,10.53,0,0,1,1.73-1.61A9.61,9.61,0,0,1,145.5,81.05Z"/><path class="cls-5" d="M114.71,99.17a10.17,10.17,0,0,1-1.73,1.62,9.86,9.86,0,0,1-2,1.22,10.17,10.17,0,0,1,1.73-1.62A10.62,10.62,0,0,1,114.71,99.17Z"/><path class="cls-5" d="M153.16,107.36a10.17,10.17,0,0,1-1.73,1.62,10.62,10.62,0,0,1-2,1.22,10.17,10.17,0,0,1,1.73-1.62A10.32,10.32,0,0,1,153.16,107.36Z"/><path class="cls-5" d="M128.26,123a10.17,10.17,0,0,1-1.73,1.62,10.32,10.32,0,0,1-2,1.22,10.17,10.17,0,0,1,1.73-1.62A9.86,9.86,0,0,1,128.26,123Z"/><path class="cls-5" d="M162.7,85.93A10.17,10.17,0,0,1,161,87.55a9.68,9.68,0,0,1-2,1.22,10.17,10.17,0,0,1,1.73-1.62A10.32,10.32,0,0,1,162.7,85.93Z"/><path class="cls-5" d="M162.17,104.11a10.53,10.53,0,0,1-1.61-1.73,9.43,9.43,0,0,1-1.22-2,11,11,0,0,1,2.83,3.76Z"/><path class="cls-5" d="M106.68,116.62a10.11,10.11,0,0,1-1.62-1.72,10.93,10.93,0,0,1-1.22-2,10.11,10.11,0,0,1,1.62,1.72A10.42,10.42,0,0,1,106.68,116.62Z"/><path class="cls-5" d="M155.43,131.52a10.17,10.17,0,0,1-1.62-1.73,10.54,10.54,0,0,1-1.22-2,9.75,9.75,0,0,1,1.62,1.72A10.13,10.13,0,0,1,155.43,131.52Z"/><path class="cls-5" d="M131,89.07a10.17,10.17,0,0,1-1.62-1.73,10.32,10.32,0,0,1-1.22-2A10.17,10.17,0,0,1,129.78,87,10.62,10.62,0,0,1,131,89.07Z"/><path class="cls-5" d="M131.43,140a10.17,10.17,0,0,1-1.62-1.73,10.32,10.32,0,0,1-1.22-2,10.17,10.17,0,0,1,1.62,1.73A9.86,9.86,0,0,1,131.43,140Z"/><path class="cls-5" d="M135.58,110a10.08,10.08,0,0,1-1.61-1.72,9.68,9.68,0,0,1-1.22-2,10.11,10.11,0,0,1,1.61,1.73A9.61,9.61,0,0,1,135.58,110Z"/><path class="cls-9" d="M156.11,85c-3.77-.7-7.31-8.48-7.76-13.72,0-.36,1.76-3.22,3.77-6.79,1.22-2.17,2.51-4.61,3.54-6.93.21-.48,1.44,1.11,1.44,1.11l2.68,2,8.85,6.79a40.55,40.55,0,0,0-5.33,8.28,5,5,0,0,0-.32,1,1.56,1.56,0,0,0,0,.16C162.43,78.9,159.74,85.69,156.11,85Z"/><path class="cls-8" d="M163,76.8a1.56,1.56,0,0,0,0,.16,9.81,9.81,0,0,1-1.53-.58C151.71,71.84,156,58.85,156,58.85l3.8,1.88,8.85,6.79a40.55,40.55,0,0,0-5.33,8.28A5,5,0,0,0,163,76.8Z"/><path class="cls-8" d="M178.8,39.85s4.42,2.81,4.45,7.81-2,9.89-2.42,10.06S178.8,39.85,178.8,39.85Z"/><path class="cls-9" d="M156.82,42.44c-2.66,5.26-2.52,21.8.8,26.07,4.82,6.18,14.1,8.31,19.71,2.2,5.43-5.93,4.87-27.49,1-31.51C172.7,33.29,160.76,34.68,156.82,42.44Z"/><path class="cls-13" d="M157.25,68.28h0"/><path class="cls-8" d="M170.94,55.7s-.09,0-.08.1c.06,1.13-.06,2.43-1.07,2.83a0,0,0,0,0,0,.06C171,58.48,171.18,56.76,170.94,55.7Z"/><path class="cls-8" d="M169.91,54.54c-1.82-.09-1.88,3.55-.19,3.64S171.43,54.62,169.91,54.54Z"/><path class="cls-8" d="M177.11,55.66s.09.05.09.1c-.06,1.12.07,2.42,1.09,2.81,0,0,0,.07,0,.07C177,58.44,176.88,56.72,177.11,55.66Z"/><path class="cls-8" d="M178.14,54.49c1.81-.1,1.9,3.54.22,3.64S176.62,54.59,178.14,54.49Z"/><path class="cls-8" d="M168.77,51.77a14.56,14.56,0,0,0,1.41-.47,2.4,2.4,0,0,0,1.36-.76.79.79,0,0,0-.11-.94,1.91,1.91,0,0,0-1.92-.22,2.77,2.77,0,0,0-1.64,1.18A.82.82,0,0,0,168.77,51.77Z"/><path class="cls-8" d="M179.4,53.39A14.65,14.65,0,0,1,178,53a2.4,2.4,0,0,1-1.39-.69.77.77,0,0,1,.06-.94,1.91,1.91,0,0,1,1.9-.33,2.85,2.85,0,0,1,1.7,1.1A.83.83,0,0,1,179.4,53.39Z"/><path class="cls-8" d="M168.37,66.38c.27.27.53.64.94.68a3,3,0,0,0,1.22-.26,0,0,0,0,1,.05,0,1.51,1.51,0,0,1-1.44.59,1.2,1.2,0,0,1-.88-1A.07.07,0,0,1,168.37,66.38Z"/><path class="cls-8" d="M174.92,61.56s.05,1.69,0,2.47a16.72,16.72,0,0,0-4.61.17c-.36.08-.32-.21.09-.4a6.76,6.76,0,0,1,3.92-.52c.08-.21-.13-2.6,0-2.59a7.16,7.16,0,0,1,1.74.59c0-3.52-.56-7-.51-10.51,0-.12.19-.14.21,0a56.78,56.78,0,0,1,1,11.3C176.77,62.5,175.22,61.73,174.92,61.56Z"/><path class="cls-8" d="M172.67,63.43a5,5,0,0,1-2.1,2.51c-1.51.62-2-.75-.48-2A4.82,4.82,0,0,1,172.67,63.43Z"/><path class="cls-14" d="M171.1,65.63a2,2,0,0,1-.53.31c-1.39.56-1.94-.55-.82-1.67C170.51,64.33,171.34,64.61,171.1,65.63Z"/><path class="cls-8" d="M156.06,56.6c1.83.56,3.93-4.94,4.52-7.05.53-1.87,1.13-7.78,1.22-8.18s8,5.23,12.58,3.88,7.69-5.48,7.76-7.41-5.66-6.83-10.61-7.08-11.66,6-11.66,6a23,23,0,0,0,2.2-2.94c-.08-.23-3.28,1-3.87,3.33,0,0,.64-2.86.4-2.91s-2.73,2.39-2.17,4.25c0,0-2.88,2.49-3.14,5.22S153.91,55.94,156.06,56.6Z"/><path class="cls-8" d="M177.66,44.29a15.78,15.78,0,0,1-4.36,1.56,10.31,10.31,0,0,1-5-.8A15.6,15.6,0,0,1,164,42.47c-1.15-.95-2.18-2.09-3.41-2.94-.31-.21-.66.23-.47.52a16.56,16.56,0,0,0,8.36,6.15,9.51,9.51,0,0,0,9.22-1.87S177.68,44.28,177.66,44.29Z"/><path class="cls-9" d="M158,56.11s-2.84-5.76-5.4-4.83-1,8.9,1.63,10.35a2.85,2.85,0,0,0,4-.93Z"/><path class="cls-8" d="M153.08,53.55s-.06.05,0,.07c1.82,1.09,2.56,3.05,3,5a1.57,1.57,0,0,0-2.26-.79c-.06,0,0,.12,0,.11a1.76,1.76,0,0,1,1.81.9,8.3,8.3,0,0,1,.68,1.69c.06.18.39.14.36-.07v-.05C157.1,58,155.7,54.21,153.08,53.55Z"/><path class="cls-9" d="M139.22,81.82c-2,11.33,10.28,49.5,18.15,56.63,11.71,10.61,33.36,17.58,41.21,19.85,3.42,1,12.88-23.08,9.42-24.66-7.41-3.4-30.43-10.58-32.6-12.42S160,100.34,154.13,89.37C146.24,74.64,140.21,76.09,139.22,81.82Z"/><path class="cls-9" d="M202.17,131.52s10.22,2.6,16.81,4.62c3.68,1.12,9.82,3.61,12.15,5.68,3.48,3.08,16.06,18.21,12.46,21.34-3.26,2.83-12.42-11.54-12.42-11.54s10.52,13.69,6,16.37-12.74-14.92-12.74-14.92,10.49,14.3,5.36,16.33c-3.88,1.54-12.2-14-12.2-14s8.94,12.35,5,14.1c-4.34,1.93-12.91-11.92-12.91-11.92-10.72,2.77-17-.3-21.13-3C187.53,153.93,202.17,131.52,202.17,131.52Z"/><path class="cls-8" d="M227.83,146.66c1.29,1.56,2.62,3.13,3.77,4.81s2.24,3.38,3.23,5.15a35.15,35.15,0,0,1,3.2,7.26c-1.72-4.39-5.75-10.44-6.9-12.11s-2.22-3.4-3.36-5.07C227.74,146.66,227.8,146.62,227.83,146.66Z"/><path class="cls-8" d="M221.72,150.7c2.22,1.76,6.87,8.31,8.66,12.69.08.19,0,.17-.13,0-1.41-2.17-7.08-10.57-8.58-12.66C221.64,150.71,221.69,150.68,221.72,150.7Z"/><path class="cls-8" d="M215.85,153.23a31.49,31.49,0,0,1,6.42,10c.07.18-.07.15-.18,0-2.07-3.37-3.67-6-6.35-9.92C215.7,153.26,215.79,153.17,215.85,153.23Z"/><path class="cls-12" d="M150.35,82.66c-9.13-12.92-14.59-8.13-12.76,5.89,1.72,13.11,6.31,28.72,6.31,28.72l23-11.16Z"/><path class="cls-5" d="M155.93,87.73a11.07,11.07,0,0,1,.8,4.64,10.26,10.26,0,0,1-.64-2.27A9.85,9.85,0,0,1,155.93,87.73Z"/><path class="cls-5" d="M142.3,95.59a11.21,11.21,0,0,1,4.63-.81,9.77,9.77,0,0,1-2.27.65A10.94,10.94,0,0,1,142.3,95.59Z"/><path class="cls-5" d="M142.89,75.5a9.9,9.9,0,0,1-1.15,2.07,10.11,10.11,0,0,1-1.56,1.78,11.42,11.42,0,0,1,2.71-3.85Z"/><path class="cls-5" d="M162.33,101.62a11.16,11.16,0,0,1-2.71,3.85,9.9,9.9,0,0,1,1.15-2.07A10.11,10.11,0,0,1,162.33,101.62Z"/><path class="cls-5" d="M146.39,109.45a11.16,11.16,0,0,1-3.85-2.71,11.16,11.16,0,0,1,3.85,2.71Z"/><path class="cls-8" d="M153.41,86.54c1.23,1.69,2.5,3.35,3.76,5-.32-.84-.6-1.68-.84-2.55,0,0,0,0,.06,0,.25.67.54,1.32.78,2l.36,1a1.67,1.67,0,0,1,.08.2c1,1.29,2,2.59,2.92,3.91,1.13,1.58,2.22,3.18,3.32,4.78s2.21,3.59,3.4,5.19c.11.14-2,1-2.24,1.12s-.34-.09-.12-.15,1.9-1.11,1.92-1.13c-1.1-1.61-2.37-3.1-3.52-4.68S161,98,159.89,96.44c-2.25-3.24-4.31-6.6-6.55-9.85C153.32,86.54,153.38,86.5,153.41,86.54Z"/><path class="cls-8" d="M138.16,97.82c.35.68.73,1.36,1,2.06l.38.87c-.53-2.5-1-5-1.55-7.49,0,0,0-.05,0,0,1.06,4.05,2.13,8.09,3.11,12.16.93,3.87,2.06,7.8,2.6,11.75a14.84,14.84,0,0,1,2.16-.73,9.86,9.86,0,0,1-2.38,1.15,123.93,123.93,0,0,1-3-12.23c-.25-1.12-.48-2.24-.72-3.37-.26-.67-.57-1.32-.88-2s-.59-1.42-.87-2.14C138.07,97.81,138.14,97.78,138.16,97.82Z"/><path class="cls-8" d="M144.27,113.42c3.2-1.81,16.57-8.73,19.56-10,.21-.09.32,0,.11.13a200.07,200.07,0,0,1-19.6,10C144.26,113.58,144.18,113.47,144.27,113.42Z"/></g><g id="Folder"><polygon class="cls-12" points="510.7 376.32 206.02 376.32 250.07 126.47 554.75 126.47 510.7 376.32"/><polygon class="cls-12" points="354.35 100.59 254.64 100.59 250.07 126.47 356.79 126.47 354.35 100.59"/><g class="cls-15"><polygon points="510.7 376.32 206.02 376.32 250.07 126.47 554.75 126.47 510.7 376.32"/><polygon points="354.35 100.59 254.64 100.59 250.07 126.47 356.79 126.47 354.35 100.59"/></g><path class="cls-8" d="M243.88,111.15a19.22,19.22,0,0,1,0-8.71,19.22,19.22,0,0,1,0,8.71Z"/><path class="cls-8" d="M235,113.71a17,17,0,0,1-2.61-3.52,17.24,17.24,0,0,1-1.75-4,16.64,16.64,0,0,1,2.61,3.52A17.61,17.61,0,0,1,235,113.71Z"/><path class="cls-8" d="M228.62,120.36a17.32,17.32,0,0,1-4-1.74,16.73,16.73,0,0,1-3.52-2.61,19,19,0,0,1,7.53,4.35Z"/><path class="cls-8" d="M226.41,129.31a19.17,19.17,0,0,1-8.7,0,19.17,19.17,0,0,1,8.7,0Z"/><path class="cls-8" d="M229,138.17a16.93,16.93,0,0,1-3.51,2.61,17.61,17.61,0,0,1-4,1.75,16.64,16.64,0,0,1,3.52-2.61A17.35,17.35,0,0,1,229,138.17Z"/><path class="cls-8" d="M235.62,144.57a16.9,16.9,0,0,1-1.74,4,16.73,16.73,0,0,1-2.61,3.52,17.18,17.18,0,0,1,1.75-4A17.53,17.53,0,0,1,235.62,144.57Z"/><path class="cls-8" d="M244.58,146.78a17.45,17.45,0,0,1,.5,4.35,17,17,0,0,1-.5,4.35,16.57,16.57,0,0,1-.5-4.35A17,17,0,0,1,244.58,146.78Z"/><path class="cls-8" d="M253.44,144.22a16.93,16.93,0,0,1,2.61,3.51,17.16,17.16,0,0,1,1.74,4,19.18,19.18,0,0,1-4.35-7.53Z"/><path class="cls-8" d="M259.83,137.57a16.8,16.8,0,0,1,4,1.74,17,17,0,0,1,3.52,2.61,16.83,16.83,0,0,1-4-1.75A17.31,17.31,0,0,1,259.83,137.57Z"/><path class="cls-8" d="M262,128.61a17.45,17.45,0,0,1,4.35-.5,17,17,0,0,1,4.36.5,16.59,16.59,0,0,1-4.36.5A17,17,0,0,1,262,128.61Z"/><path class="cls-8" d="M259.48,119.75a17,17,0,0,1,3.52-2.61,16.8,16.8,0,0,1,4-1.74,19.13,19.13,0,0,1-7.54,4.35Z"/><path class="cls-8" d="M252.83,113.36a17.21,17.21,0,0,1,1.74-4,17,17,0,0,1,2.61-3.52,16.8,16.8,0,0,1-1.74,4A17,17,0,0,1,252.83,113.36Z"/><polygon class="cls-12" points="510.25 376.32 204.91 376.32 161.56 135.54 466.9 135.54 510.25 376.32"/><circle class="cls-8" cx="267.37" cy="270.04" r="12.69"/><circle class="cls-8" cx="367.69" cy="270.04" r="12.69"/><path class="cls-8" d="M335.76,284.75l-.7-1.33c-.06-.12-6.62-12.23-19.81-12.23-12,0-15,11.41-15.08,11.89l-.36,1.46-2.91-.71.35-1.45c0-.14,3.58-14.19,18-14.19,15,0,22.17,13.28,22.47,13.84l.7,1.33Z"/></g><g id="Fly"><path class="cls-16" d="M490,268.58c.65-.14,1.3-.29,1.94-.46"/><path class="cls-17" d="M495.77,267c15.3-5.17,28.11-17.2,29.31-31.26,2.66-31-35.09-48.12-31.19-83.95,3.72-34.17,39.56-36.61,53.93-31.88,15.87,5.21,10.43,20.47-3.94,18.5C519,135,503.31,107.91,515.14,77.19,524,54.23,546,45.58,555,42.94"/><path class="cls-16" d="M556.9,42.41c1.23-.32,1.94-.46,1.94-.46"/><path class="cls-8" d="M574.7,36.43c-2.55-7.9-19.63-5.06-16.3,5.26S577.25,44.33,574.7,36.43Z"/><path class="cls-1" d="M549.11,33.24c.13-3.46,4.95-6.13,11.77-4.9s13.23,5.82,13.23,5.82-6.74,4.13-13.62,4.85S549,36.73,549.11,33.24Z"/><path class="cls-8" d="M574.11,34.16c-3.54,0-7.07-.09-10.6-.2s-7.07-.29-10.6-.58c3.54,0,7.08.1,10.61.21S570.59,33.88,574.11,34.16Z"/><path class="cls-8" d="M556,30.17a29.14,29.14,0,0,1,5.65,3.54,28.51,28.51,0,0,1-2.92-1.61A28.63,28.63,0,0,1,556,30.17Z"/><path class="cls-8" d="M565.23,33.84a31.44,31.44,0,0,1-2.84,2,31.34,31.34,0,0,1-3,1.73,30.09,30.09,0,0,1,2.84-2A31.34,31.34,0,0,1,565.23,33.84Z"/><path class="cls-8" d="M566.26,31.88a7.67,7.67,0,0,1,1.41.9A6.94,6.94,0,0,1,568.84,34a7.35,7.35,0,0,1-1.41-.9A6.94,6.94,0,0,1,566.26,31.88Z"/><path class="cls-1" d="M555.61,53.82c2.13,2.73,7.6,2.08,12.41-2.91s7.33-12.46,7.33-12.46-7.88.6-13.89,4S553.47,51.07,555.61,53.82Z"/><path class="cls-8" d="M575.35,38.45c-2.88,2-5.68,4.21-8.49,6.37s-5.56,4.36-8.25,6.66c2.88-2,5.68-4.21,8.48-6.37S572.65,40.74,575.35,38.45Z"/><path class="cls-8" d="M563,52.3a28.69,28.69,0,0,0,1.43-3,26.58,26.58,0,0,0,1.08-3.15,28.53,28.53,0,0,0-1.43,3A26.73,26.73,0,0,0,563,52.3Z"/><path class="cls-8" d="M568.33,43.91a31.43,31.43,0,0,0-3.5,0,29.35,29.35,0,0,0-3.48.37,31.43,31.43,0,0,0,3.5,0A28.91,28.91,0,0,0,568.33,43.91Z"/><path class="cls-8" d="M570.31,44.89a7.38,7.38,0,0,0,.62-1.55,7.57,7.57,0,0,0,.26-1.65,6.88,6.88,0,0,0-.62,1.55A7,7,0,0,0,570.31,44.89Z"/><path class="cls-18" d="M574.7,36.43a3,3,0,1,1,1.93-3.77A3,3,0,0,1,574.7,36.43Z"/><path class="cls-18" d="M576.54,42.13a3,3,0,1,1,1.93-3.77A3,3,0,0,1,576.54,42.13Z"/></g><g id="Speech_Bubble" data-name="Speech Bubble"><path class="cls-5" d="M248.69,39.59a24.91,24.91,0,0,1-41.64,15.76l-12.47,1.83,6.24-10.78a24.93,24.93,0,1,1,47.87-6.81Z"/><path class="cls-8" d="M248.69,39.59a25,25,0,0,1-5,12.63,26.47,26.47,0,0,1-2.26,2.6,26.7,26.7,0,0,1-2.63,2.23,24.92,24.92,0,0,1-6,3.35,25.28,25.28,0,0,1-6.71,1.6,25,25,0,0,1-3.46.06,21,21,0,0,1-3.45-.36,25.15,25.15,0,0,1-12.33-6.08l.29.09-12.45,1.91-.91.14.46-.8,6.2-10.8,0,.43a25.17,25.17,0,1,1,48.32-7Zm0,0a24.65,24.65,0,0,0-28.26-27,24.52,24.52,0,0,0-10.29,4.07,25.55,25.55,0,0,0-7.46,8.13,24.53,24.53,0,0,0-1.41,21.41l.09.22-.12.2L195,57.4l-.44-.66L207,55l.17,0,.12.12a24.64,24.64,0,0,0,11.94,6.15,22.45,22.45,0,0,0,3.38.41,24.26,24.26,0,0,0,3.41,0,24.58,24.58,0,0,0,6.66-1.46,23.44,23.44,0,0,0,6-3.24,29.17,29.17,0,0,0,2.63-2.2,26.51,26.51,0,0,0,2.27-2.58A25,25,0,0,0,248.69,39.59Z"/><path class="cls-3" d="M211.72,48.61a2.42,2.42,0,0,1,2.44-2.56,2.38,2.38,0,0,1,2.43,2.56,2.4,2.4,0,0,1-2.43,2.57A2.43,2.43,0,0,1,211.72,48.61Zm1-5.91-.58-19.84h4l-.58,19.84Z"/><path class="cls-3" d="M221.22,48.61a2.43,2.43,0,0,1,2.44-2.56,2.38,2.38,0,0,1,2.44,2.56,2.4,2.4,0,0,1-2.44,2.57A2.43,2.43,0,0,1,221.22,48.61Zm1-5.91-.58-19.84h4l-.58,19.84Z"/><path class="cls-3" d="M230.73,48.61a2.43,2.43,0,0,1,2.44-2.56,2.38,2.38,0,0,1,2.44,2.56,2.44,2.44,0,1,1-4.88,0Zm1-5.91-.58-19.84h4l-.57,19.84Z"/></g></g></svg>